<svg xmlns="http://www.w3.org/2000/svg" viewBox="0 0 100 100">
  <defs>
    <linearGradient id="favGrad" x1="0%" y1="0%" x2="100%" y2="100%">
      <stop offset="0%" style="stop-color:#3b82f6;stop-opacity:1" />
      <stop offset="100%" style="stop-color:#1e40af;stop-opacity:1" />
    </linearGradient>
    <filter id="shadow" x="-50%" y="-50%" width="200%" height="200%">
      <feDropShadow dx="2" dy="2" stdDeviation="3" flood-opacity="0.3"/>
    </filter>
  </defs>

  <!-- Background circle -->
  <circle cx="50" cy="50" r="48" fill="url(#favGrad)" filter="url(#shadow)"/>

  <!-- Inner circle for contrast -->
  <circle cx="50" cy="50" r="45" fill="url(#favGrad)" opacity="0.9"/>

  <!-- Blockchain blocks -->
  <rect x="25" y="30" width="18" height="18" rx="2" fill="white" opacity="0.8"/>
  <rect x="47" y="30" width="18" height="18" rx="2" fill="white" opacity="0.7"/>
  <rect x="69" y="30" width="18" height="18" rx="2" fill="white" opacity="0.6"/>

  <!-- Connection lines -->
  <line x1="43" y1="39" x2="47" y2="39" stroke="white" stroke-width="2" opacity="0.5"/>
  <line x1="65" y1="39" x2="69" y2="39" stroke="white" stroke-width="2" opacity="0.5"/>

  <!-- Lower blocks -->
  <rect x="25" y="52" width="18" height="18" rx="2" fill="white" opacity="0.7"/>
  <rect x="47" y="52" width="18" height="18" rx="2" fill="white" opacity="0.8"/>
  <rect x="69" y="52" width="18" height="18" rx="2" fill="white" opacity="0.6"/>

  <!-- Vertical connection -->
  <line x1="34" y1="48" x2="34" y2="52" stroke="white" stroke-width="1.5" opacity="0.4"/>
  <line x1="56" y1="48" x2="56" y2="52" stroke="white" stroke-width="1.5" opacity="0.5"/>
  <line x1="78" y1="48" x2="78" y2="52" stroke="white" stroke-width="1.5" opacity="0.4"/>

  <!-- Shine effect -->
  <ellipse cx="45" cy="35" rx="20" ry="15" fill="white" opacity="0.15"/>

  <!-- Center lock symbol -->
  <g transform="translate(50, 72)">
    <rect x="-6" y="-4" width="12" height="8" rx="1" fill="white" opacity="0.6"/>
    <circle cx="0" cy="-1" r="2.5" fill="white" opacity="0.6"/>
  </g>
</svg>
